<?xml version="1.0" encoding="UTF-8" standalone="no"?>
<!-- Created with Inkscape (http://www.inkscape.org/) -->

<svg
   version="1.1"
   id="svg1"
   width="511.99969"
   height="511.99966"
   viewBox="0 0 511.99968 511.99965"
   sodipodi:docname="book.svg"
   inkscape:version="1.3.2 (091e20ef0f, 2023-11-25, custom)"
   xmlns:inkscape="http://www.inkscape.org/namespaces/inkscape"
   xmlns:sodipodi="http://sodipodi.sourceforge.net/DTD/sodipodi-0.dtd"
   xmlns="http://www.w3.org/2000/svg"
   xmlns:svg="http://www.w3.org/2000/svg">
  <defs
     id="defs1" />
  <sodipodi:namedview
     id="namedview1"
     pagecolor="#505050"
     bordercolor="#ffffff"
     borderopacity="1"
     inkscape:showpageshadow="0"
     inkscape:pageopacity="0"
     inkscape:pagecheckerboard="1"
     inkscape:deskcolor="#505050"
     inkscape:zoom="0.21717016"
     inkscape:cx="499.60823"
     inkscape:cy="-13.814053"
     inkscape:window-width="1366"
     inkscape:window-height="718"
     inkscape:window-x="0"
     inkscape:window-y="0"
     inkscape:window-maximized="1"
     inkscape:current-layer="g1"
     showguides="false">
    <inkscape:page
       x="0"
       y="0"
       inkscape:label="1"
       id="page1"
       width="511.99969"
       height="511.99966"
       margin="0"
       bleed="0" />
  </sodipodi:namedview>
  <g
     id="g1"
     inkscape:groupmode="layer"
     inkscape:label="1"
     transform="translate(-1015.6613,-910.87606)">
    <g
       id="group-R5" />
    <g
       inkscape:groupmode="layer"
       id="layer1"
       inkscape:label="book">
      <path
         id="path3"
         d="m 1507.9698,1351.5218 c -14.5101,-0.8262 -42.4858,-1.6695 -76.3034,1.0098 -31.0118,2.4613 -59.3561,7.2174 -84.8896,14.2226 22.1543,-11.1704 44.0064,-18.4854 62.2132,-23.2244 41.1084,-10.7 73.2313,-11.0385 73.5436,-11.0442 5.417,-0.029 9.7946,-4.9627 9.7946,-11.0327 V 996.33419 h 15.6416 z m -472.6164,0 V 996.33419 h 15.6395 v 325.11871 c 0,6.07 4.3781,11.004 9.7966,11.0327 0.9319,0.01 69.5583,0.918 135.8746,34.2973 -25.5637,-7.0167 -53.9495,-11.7843 -85.0069,-14.2513 -33.8227,-2.6793 -61.7927,-1.836 -76.3038,-1.0098 z m 35.3321,-376.0999 h 17.305 v 305.3194 c 0,5.8061 4.0136,10.6139 9.1817,11.0098 54.3125,4.1136 98.7085,26.0184 131.9527,65.1064 2.2302,2.6219 4.3279,5.2381 6.3088,7.8256 -33.5447,-22.7253 -69.3401,-35.5825 -97.133,-42.777 -29.7257,-7.6879 -54.5777,-10.2295 -67.6152,-11.0729 z m 36.9976,-41.182 c 12.0734,1.93919 33.3348,6.5462 56.8207,17.09701 45.8772,20.59674 78.3427,53.22449 96.5888,97.02849 -0.065,0.5105 -0.1106,1.0327 -0.1106,1.5547 v 315.5145 c -4.6874,-7.3207 -10.2794,-15.1061 -16.9073,-22.9777 -24.2523,-28.8067 -67.3156,-63.999 -136.3916,-71.8533 z m 270.5715,17.34945 c 23.6134,-10.68276 45.184,-15.36436 57.3849,-17.33224 v 336.34649 c -69.0739,7.8543 -112.1382,43.0466 -136.3916,71.8533 -6.6304,7.8716 -12.2215,15.657 -16.9063,22.9777 v -315.5145 c 0,-0.522 -0.046,-1.0442 -0.1126,-1.5605 18.1709,-43.6089 50.4422,-76.15056 96.0256,-96.77025 z m 94.3821,23.83255 v 335.4113 c -13.0356,0.8434 -37.888,3.385 -67.6148,11.0729 -27.7913,7.1945 -63.5904,20.0517 -97.1315,42.7827 1.792,-2.3465 3.6813,-4.716 5.6832,-7.0912 33.2954,-39.5469 77.9008,-61.7042 132.5773,-65.8465 5.1661,-0.3959 9.1802,-5.2037 9.1802,-11.0098 V 975.4219 Z m 45.1789,-1.15319 h -25.4874 v -9.87955 c 0,-6.09296 -4.4083,-11.03274 -9.8458,-11.03274 h -27.1513 V 921.9048 c 0,-3.03501 -1.1162,-5.93805 -3.0874,-8.02642 -1.9763,-2.08262 -4.6336,-3.16122 -7.3318,-2.98337 -1.3875,0.0918 -34.3808,2.42686 -73.4208,19.95417 -44.4775,19.97712 -78.592,51.74429 -99.8298,92.63942 -21.2372,-40.89513 -55.3533,-72.6623 -99.8323,-92.63942 -39.0364,-17.52731 -72.0307,-19.86237 -73.4162,-19.95417 -2.7069,-0.17785 -5.3591,0.90075 -7.3318,2.98337 -1.9723,2.08837 -3.0905,4.99141 -3.0905,8.02642 v 31.45162 h -27.1513 c -5.438,0 -9.8463,4.93978 -9.8463,11.03274 v 9.87955 h -25.4853 c -5.438,0 -9.8463,4.93977 -9.8463,11.03275 v 377.98174 c 0,3.0924 1.1592,6.0471 3.1929,8.1354 2.0336,2.0884 4.7549,3.1211 7.5074,2.8572 1.4439,-0.1378 145.4464,-13.3851 235.9368,43.9014 0.031,0.017 0.062,0.034 0.093,0.057 0.4413,0.2697 0.8806,0.5623 1.3204,0.8434 0.1782,0.2123 0.3646,0.4131 0.5571,0.6024 0.4674,0.5164 0.9666,1.004 1.5304,1.4114 1.6281,1.1876 3.4938,1.7843 5.3616,1.7843 0.1674,0 0.3333,-0.029 0.5002,-0.04 0.169,0.012 0.3328,0.04 0.5018,0.04 1.8637,0 3.7325,-0.5967 5.3606,-1.7843 0.5632,-0.4074 1.065,-0.895 1.5309,-1.4114 0.1895,-0.1893 0.3789,-0.3901 0.5581,-0.6024 0.4352,-0.2811 0.8755,-0.5737 1.3209,-0.8434 0.031,-0.023 0.062,-0.04 0.092,-0.057 90.4909,-57.2922 234.4909,-44.0449 235.9348,-43.9014 2.7494,0.2696 5.4733,-0.7688 7.5059,-2.8572 2.0377,-2.0883 3.1949,-5.043 3.1949,-8.1354 V 985.30146 c 0,-6.09298 -4.4084,-11.03275 -9.8458,-11.03275"
         style="fill:#1b1918;fill-opacity:1;fill-rule:nonzero;stroke:none;stroke-width:0.0541984" />
    </g>
  </g>
</svg>
